<svg width="1024" height="268" viewBox="0 0 1024 268" fill="none" xmlns="http://www.w3.org/2000/svg">
<g clip-path="url(#clip0)">
<path d="M125.441 234.959C122.369 234.959 119.297 233.931 116.737 232.389L65.0254 197.428L72.7054 185.603L124.417 220.564C124.929 220.564 125.953 220.564 126.465 220.564L188.929 179.433C189.953 178.405 190.465 177.376 190.465 175.834V129.048H204.801V175.834C204.801 182.004 201.729 187.659 196.609 190.744L134.145 231.875C131.585 233.931 128.513 234.959 125.441 234.959Z" fill="#60BEEC"/>
<path d="M59.6465 133.675H45.8225V166.065H59.6465V133.675Z" fill="#60BEEC"/>
<path d="M104.787 91.1081L52.7354 124.845L60.2321 136.508L112.284 102.771L104.787 91.1081Z" fill="#60BEEC"/>
<path d="M125.441 179.431C122.369 179.431 119.297 178.917 116.737 177.375L5.63307 111.052C0.513072 108.481 -1.53493 102.311 0.513072 97.17C1.53707 95.1134 3.07307 93.571 5.12107 92.5427L116.737 17.9933C122.369 14.9085 129.025 14.9085 134.145 17.9933L248.321 92.5427C253.441 95.1134 254.977 101.797 252.417 106.424C251.393 107.967 249.857 109.509 248.321 110.537L134.657 177.375C131.585 178.917 128.513 179.431 125.441 179.431ZM16.8971 101.283L123.905 165.036C124.929 165.55 125.953 165.55 126.977 165.036L236.033 101.283L126.465 29.3042C125.953 28.7901 124.929 28.7901 124.417 29.3042L16.8971 101.283Z" fill="#60BEEC"/>
<path d="M127.457 124.035C113.121 124.549 100.833 113.238 100.321 98.328C99.809 83.9322 111.073 71.593 125.921 71.0789C140.257 70.5647 152.545 81.8757 153.057 96.7856C153.057 97.2997 153.057 97.2997 153.057 97.8138C153.057 112.21 141.793 124.035 127.457 124.035ZM127.457 84.9605C120.801 84.4464 114.657 89.5877 114.145 96.7856C113.633 103.469 118.753 109.639 125.921 110.153C132.577 110.667 138.721 105.526 139.233 98.328C139.233 97.8138 139.233 97.8138 139.233 97.2997C139.233 91.1301 134.113 85.4746 127.457 84.9605Z" fill="#60BEEC"/>
<path d="M52.7363 208.224C38.4003 208.224 26.1123 196.399 26.1123 181.489C26.1123 167.093 37.8883 154.754 52.7363 154.754C67.0723 154.754 79.3603 166.579 79.3603 181.489C79.3603 196.399 67.5843 208.224 52.7363 208.224ZM52.7363 169.15C46.0803 169.664 40.9603 175.833 41.4723 183.031C41.9843 189.201 46.5923 193.828 52.7363 194.342C59.3923 193.828 64.5123 187.658 64.0003 180.461C63.4883 174.291 58.8803 169.664 52.7363 169.15Z" fill="#60BEEC"/>
<path d="M357.89 82.2607H295.938V115.679H353.282C357.378 115.679 360.45 116.708 362.498 118.764C364.546 120.821 365.57 123.391 365.57 126.476C365.57 129.561 364.546 132.132 362.498 134.188C360.45 136.245 357.378 137.273 352.77 137.273H295.938V176.347H360.45C364.546 176.347 368.13 177.376 370.178 179.432C372.226 181.489 373.25 184.059 373.25 187.658C373.25 190.743 372.226 193.314 370.178 195.37C368.13 197.427 364.546 198.455 360.45 198.455H285.186C279.042 198.455 274.946 196.913 272.386 194.342C269.826 191.771 268.29 187.144 268.29 181.489V78.6617C268.29 74.5487 268.802 71.4639 269.826 68.8932C270.85 66.3225 272.898 64.7801 275.458 63.2377C278.018 62.2094 281.09 61.6953 285.186 61.6953H357.89C362.498 61.6953 365.57 62.7236 367.618 64.7801C369.666 66.8367 370.69 69.4073 370.69 72.4921C370.69 75.5769 369.666 78.1476 367.618 80.2041C365.57 81.2324 362.498 82.2607 357.89 82.2607Z" fill="#60BEEC"/>
<path d="M462.848 185.086V182.515C459.264 186.628 456.192 189.713 452.608 192.284C449.536 194.854 445.44 196.397 441.856 197.939C438.272 199.482 433.664 199.996 429.056 199.996C422.912 199.996 417.28 198.453 412.16 195.883C407.04 193.312 402.432 189.713 398.848 184.572C395.264 179.43 392.192 174.289 390.144 167.605C388.096 160.922 387.072 154.238 387.072 146.526C387.072 130.588 391.168 118.248 398.848 109.508C406.528 100.768 416.768 96.1407 429.568 96.1407C436.736 96.1407 442.88 97.1689 448 99.7396C453.12 102.31 457.728 105.909 462.848 111.565V74.0329C462.848 68.8915 463.872 64.7785 465.92 62.2078C467.968 59.6371 471.04 58.0947 474.624 58.0947C478.72 58.0947 481.28 59.123 483.328 61.6937C485.376 64.2643 486.4 67.8633 486.4 72.4905V185.086C486.4 189.713 485.376 193.826 482.816 195.883C480.768 198.453 477.696 199.482 474.112 199.482C470.528 199.482 467.968 198.453 465.408 195.883C464.384 193.312 462.848 189.713 462.848 185.086ZM413.184 148.068C413.184 154.752 414.208 160.922 416.256 165.549C418.304 170.176 421.376 174.289 424.96 176.346C428.544 178.402 432.64 179.945 437.248 179.945C441.856 179.945 445.952 178.916 449.536 176.346C453.12 173.775 456.192 170.176 458.24 165.549C460.288 160.922 461.312 154.752 461.312 147.554C461.312 140.87 460.288 134.701 458.24 130.074C456.192 124.932 453.12 121.333 449.536 118.763C445.952 116.192 441.856 114.649 437.248 114.649C432.64 114.649 428.544 116.192 424.96 118.763C421.376 121.333 418.304 125.446 416.256 130.074C414.208 134.701 413.184 141.384 413.184 148.068Z" fill="#60BEEC"/>
<path d="M596.993 150.125V184.058C596.993 189.199 595.969 193.312 593.409 195.883C590.849 198.454 587.777 199.996 583.681 199.996C579.585 199.996 576.513 198.454 574.465 195.883C572.417 193.312 570.881 189.199 570.881 184.058V143.441C570.881 137.272 570.881 132.131 570.369 128.532C569.857 124.933 568.833 121.848 566.785 119.791C564.737 117.735 561.665 116.192 557.569 116.192C549.377 116.192 543.745 119.277 541.185 124.933C538.625 130.588 537.089 138.814 537.089 149.611V184.058C537.089 189.199 536.065 193.312 533.505 195.883C530.945 198.454 527.873 199.996 524.289 199.996C520.193 199.996 517.121 198.454 515.073 195.883C512.513 193.312 511.489 189.199 511.489 184.058V111.051C511.489 106.424 512.513 102.825 514.561 100.254C516.609 97.6835 519.681 96.6553 523.265 96.6553C526.849 96.6553 529.409 97.6835 531.969 100.254C534.529 102.825 535.553 105.91 535.553 110.023V112.593C540.161 107.452 544.769 103.339 549.889 100.768C555.009 98.1977 560.641 97.1694 566.785 97.1694C572.929 97.1694 578.561 98.1977 583.169 100.768C587.777 103.339 591.361 106.938 594.433 112.593C598.529 107.452 603.137 103.339 608.257 100.768C613.377 98.1977 618.497 97.1694 624.641 97.1694C631.809 97.1694 637.441 98.7118 642.561 101.282C647.681 103.853 651.265 107.966 653.825 113.108C655.873 117.735 656.897 124.933 656.897 134.701V184.572C656.897 189.714 655.873 193.827 653.313 196.397C650.753 198.968 647.681 200.51 643.585 200.51C639.489 200.51 636.417 198.968 634.369 196.397C631.809 193.827 630.785 189.714 630.785 184.572V141.899C630.785 136.244 630.785 132.131 630.273 128.532C629.761 124.933 628.737 122.362 626.689 120.305C624.641 118.249 621.569 116.707 617.473 116.707C613.889 116.707 610.817 117.735 607.745 119.791C604.673 121.848 602.625 124.419 600.577 128.017C598.017 131.616 596.993 138.814 596.993 150.125Z" fill="#60BEEC"/>
<path d="M693.76 84.3142C690.176 84.3142 687.104 83.2859 684.544 81.2294C681.984 79.1728 680.96 76.088 680.96 71.975C680.96 68.376 682.496 65.2912 685.056 63.2347C687.616 60.664 690.688 59.6357 694.272 59.6357C697.344 59.6357 700.416 60.664 702.976 62.7205C705.536 64.7771 706.56 67.8619 706.56 71.975C706.56 76.088 705.536 79.1728 702.976 81.2294C700.416 83.2859 697.344 84.3142 693.76 84.3142ZM706.56 110.535V184.056C706.56 189.198 705.536 192.796 702.976 195.881C700.416 198.452 697.344 199.994 693.76 199.994C690.176 199.994 687.104 198.452 684.544 195.881C681.984 193.311 680.96 189.198 680.96 184.57V111.563C680.96 106.422 681.984 102.823 684.544 100.252C687.104 97.6817 689.664 96.6534 693.76 96.6534C697.856 96.6534 700.416 97.6817 702.976 100.252C705.024 102.823 706.56 105.908 706.56 110.535Z" fill="#60BEEC"/>
<path d="M823.811 168.118C823.811 171.203 822.787 174.802 820.739 178.401C818.691 182 816.131 185.599 812.035 188.684C807.939 191.769 803.331 194.339 797.187 196.396C791.043 198.452 784.899 199.481 777.219 199.481C761.347 199.481 749.059 194.853 740.355 185.599C731.651 176.345 727.043 164.005 727.043 148.581C727.043 138.299 729.091 129.044 733.187 120.818C737.283 112.592 742.915 106.422 750.595 102.309C758.275 97.682 767.491 95.6255 777.731 95.6255C784.387 95.6255 790.531 96.6538 795.651 98.7103C801.283 100.767 805.891 103.338 809.475 106.422C813.059 109.507 816.131 112.592 818.179 116.191C820.227 119.79 821.251 122.875 821.251 125.959C821.251 129.044 820.227 131.615 817.667 133.671C815.619 135.728 812.547 136.756 809.475 136.756C807.427 136.756 805.379 136.242 804.355 135.214C803.331 134.186 801.283 132.129 799.747 130.072C796.675 125.445 793.603 121.846 790.019 119.276C786.435 116.705 782.339 115.677 777.219 115.677C769.539 115.677 763.907 118.762 759.299 124.417C754.691 130.072 752.643 138.299 752.643 148.581C752.643 153.209 753.155 157.836 754.179 161.949C755.203 166.062 757.251 169.147 759.299 172.231C761.347 175.316 764.419 177.373 767.491 178.915C770.563 180.458 774.147 180.972 777.731 180.972C782.851 180.972 786.947 179.944 791.043 177.373C794.627 174.802 797.699 171.203 800.771 166.576C802.307 163.491 803.843 161.435 805.891 159.892C807.939 158.35 809.987 157.322 812.547 157.322C815.619 157.322 818.179 158.35 820.227 160.921C822.787 162.977 823.811 165.548 823.811 168.118Z" fill="#60BEEC"/>
<path d="M870.912 162.979V184.059C870.912 189.2 869.888 193.313 867.328 195.884C864.768 198.454 861.696 199.997 858.112 199.997C854.528 199.997 851.456 198.454 848.896 195.884C846.336 193.313 845.312 189.2 845.312 184.059V113.622C845.312 102.311 849.408 96.6558 857.6 96.6558C861.696 96.6558 864.768 98.1982 866.816 100.769C868.864 103.34 869.888 107.453 869.888 112.594C872.96 107.453 876.032 103.34 879.104 100.769C882.176 98.1982 886.784 96.6558 891.904 96.6558C897.024 96.6558 902.656 98.1982 907.264 100.769C912.384 103.34 914.944 106.938 914.944 111.566C914.944 114.65 913.92 117.221 911.872 119.278C909.824 121.334 907.264 122.362 904.704 122.362C903.68 122.362 901.632 121.848 898.048 120.82C894.464 119.792 891.392 119.278 888.832 119.278C885.248 119.278 882.176 120.306 879.616 122.362C877.056 124.419 875.52 126.99 873.984 131.103C872.448 135.216 871.936 139.329 871.424 144.984C871.424 149.097 870.912 155.267 870.912 162.979Z" fill="#60BEEC"/>
<path d="M1017.34 148.069C1017.34 155.781 1016.32 162.465 1013.76 169.149C1011.2 175.318 1008.13 180.974 1003.52 185.601C998.911 190.228 993.791 193.827 987.647 196.398C981.503 198.968 974.336 199.997 966.656 199.997C958.976 199.997 951.808 198.968 945.664 196.398C939.52 193.827 934.4 190.228 929.792 185.601C925.184 180.974 922.112 175.318 919.552 169.149C916.992 162.979 915.968 155.781 915.968 148.069C915.968 140.357 916.992 133.159 919.552 126.99C922.112 120.82 925.184 115.165 929.792 110.537C934.4 105.91 939.52 102.311 945.664 100.255C951.808 97.684 958.976 96.6558 966.656 96.6558C974.336 96.6558 981.503 97.684 987.647 100.255C993.791 102.825 999.423 106.424 1003.52 111.052C1008.13 115.679 1011.2 121.334 1013.76 127.504C1016.32 133.673 1017.34 140.357 1017.34 148.069ZM991.743 148.069C991.743 137.786 989.695 129.56 985.087 123.905C980.479 118.249 974.336 115.165 966.656 115.165C961.536 115.165 957.44 116.707 953.344 119.278C949.76 121.848 946.688 125.447 944.64 130.589C942.592 135.73 941.568 141.385 941.568 148.069C941.568 154.753 942.592 160.408 944.64 165.55C946.688 170.691 949.76 174.29 953.344 176.861C956.928 179.431 961.536 180.974 966.656 180.974C974.336 180.974 980.479 177.889 985.087 172.233C989.183 166.578 991.743 158.352 991.743 148.069Z" fill="#60BEEC"/>
</g>
<defs>
<clipPath id="clip0">
<rect width="1024" height="267.35" fill="white"/>
</clipPath>
</defs>
</svg>
